<svg width="18" height="21" viewBox="0 0 18 21" fill="none" xmlns="http://www.w3.org/2000/svg">
<path opacity="0.5" fill-rule="evenodd" clip-rule="evenodd" d="M16.6951 14.1562C17.0336 14.5729 17.3006 14.944 17.4959 15.2695C17.6912 15.5951 17.7107 15.9206 17.5545 16.2461C17.3982 16.5716 17.1443 16.7604 16.7927 16.8125C16.4412 16.8646 16.1677 16.8906 15.9724 16.8906H12.3201C12.3201 17.8151 11.9946 18.6029 11.3435 19.2539C10.6925 19.905 9.90473 20.2305 8.98024 20.2305C8.05576 20.2305 7.26801 19.905 6.61696 19.2539C5.96592 18.6029 5.6404 17.8151 5.6404 16.8906H2.06618C1.7667 16.8906 1.45746 16.8548 1.13845 16.7832C0.819435 16.7116 0.588318 16.5326 0.445088 16.2461C0.288837 15.9206 0.301858 15.5853 0.48415 15.2402C0.666443 14.8952 0.913836 14.5143 1.22634 14.0977C1.5779 13.6419 1.96201 13.1244 2.37868 12.5449C2.79535 11.9655 3.00368 11.3633 3.00368 10.7383V6.65625C3.00368 5.77083 3.15667 4.94076 3.46267 4.16602C3.76866 3.39127 4.18857 2.7142 4.72243 2.13477C5.25629 1.55534 5.88779 1.09961 6.61696 0.767578C7.34613 0.435545 8.12738 0.269531 8.96071 0.269531C9.80707 0.269531 10.5948 0.435545 11.324 0.767578C12.0532 1.09961 12.6879 1.55534 13.2283 2.13477C13.7687 2.7142 14.1918 3.39127 14.4978 4.16602C14.8038 4.94076 14.9568 5.77083 14.9568 6.65625V10.7383C14.9568 11.3763 15.1554 11.9948 15.5525 12.5938C15.9496 13.1927 16.3305 13.7135 16.6951 14.1562ZM8.98047 18.9219C9.54037 18.9219 10.0189 18.7233 10.416 18.3262C10.8132 17.929 11.0117 17.4505 11.0117 16.8906H6.94922C6.94922 17.4505 7.14778 17.929 7.54492 18.3262C7.94206 18.7233 8.42057 18.9219 8.98047 18.9219ZM16.1094 15.5625C16.0443 15.4714 15.9727 15.377 15.8945 15.2793C15.8164 15.1816 15.7383 15.0872 15.6602 14.9961C15.2305 14.4753 14.7845 13.8535 14.3223 13.1309C13.86 12.4082 13.6289 11.6107 13.6289 10.7383V6.65625C13.6289 5.95312 13.5085 5.29558 13.2676 4.68359C13.0267 4.07161 12.6979 3.53776 12.2812 3.08203C11.8646 2.6263 11.373 2.26498 10.8066 1.99805C10.2402 1.73112 9.625 1.59766 8.96094 1.59766C8.30989 1.59766 7.70117 1.73112 7.13477 1.99805C6.56836 2.26498 6.07683 2.6263 5.66016 3.08203C5.24349 3.53776 4.91797 4.07161 4.68359 4.68359C4.44922 5.29558 4.33203 5.95312 4.33203 6.65625V10.7383C4.33203 11.5846 4.08789 12.3626 3.59961 13.0723C3.11133 13.7819 2.67839 14.3906 2.30078 14.8984C2.22266 15.0026 2.14128 15.1133 2.05664 15.2305C1.972 15.3477 1.89714 15.4583 1.83203 15.5625H16.1094Z" fill="#243B6B"/>
</svg>
