<?xml version="1.0" encoding="UTF-8"?>
<!DOCTYPE svg PUBLIC "-//W3C//DTD SVG 1.0//EN" "http://www.w3.org/TR/2001/REC-SVG-20010904/DTD/svg10.dtd">
<!-- Creator: CorelDRAW 2020 (64-Bit) -->
<svg xmlns="http://www.w3.org/2000/svg" xml:space="preserve" width="31.7498mm" height="10.583mm" version="1.0" style="shape-rendering:geometricPrecision; text-rendering:geometricPrecision; image-rendering:optimizeQuality; fill-rule:evenodd; clip-rule:evenodd"
viewBox="0 0 3174.98 1058.3"
 xmlns:xlink="http://www.w3.org/1999/xlink"
 xmlns:xodm="http://www.corel.com/coreldraw/odm/2003">
 <defs>
  <style type="text/css">
   <![CDATA[
    .fil0 {fill:white}
    .fil1 {fill:#2B2A29;fill-rule:nonzero}
   ]]>
  </style>
 </defs>
 <g id="Слой_x0020_1">
  <metadata id="CorelCorpID_0Corel-Layer"/>
  <path class="fil0" d="M2330.09 657.07c216.33,-0.67 320.99,4.74 320.99,-166.75 0,-171.49 -109.41,-165.32 -321.23,-165.34 0.24,332.09 0,0 0.24,332.09z"/>
  <path class="fil1" d="M26.51 467.56l0 -463.84 930.23 0 0 463.84 -233.2 0 0 583 -463.83 0 0 -583 -233.2 0zm980.8 0l0 -463.84 930.23 0 0 463.84 -233.2 0 0 583 -463.83 0 0 -583 -233.2 0zm1059.72 -463.84l515.34 0c185.44,0 328.97,51.27 429.88,154.05 101.15,102.57 151.73,226.42 151.73,371.34 0,92.49 -22.97,179.61 -69.09,261.77 -45.9,82.2 -113.07,145.89 -201.81,191.32 -88.77,45.66 -195.99,68.36 -321.73,68.36l-504.32 0 0 -1046.84zm463.1 400.62l0 245.6 11.72 0c55.72,0 96,-9.59 121.06,-29.03 24.82,-19.42 37.23,-51.51 37.23,-95.78 0,-80.54 -46.82,-120.79 -140.51,-120.79l-29.5 0z"/>
 </g>
</svg>
