<?xml version="1.0" encoding="UTF-8"?>
<!DOCTYPE svg PUBLIC "-//W3C//DTD SVG 1.0//EN" "http://www.w3.org/TR/2001/REC-SVG-20010904/DTD/svg10.dtd">
<!-- Creator: CorelDRAW 2020 (64-Bit) -->
<svg xmlns="http://www.w3.org/2000/svg" xml:space="preserve" width="2.5398mm" height="2.5398mm" version="1.0" style="shape-rendering:geometricPrecision; text-rendering:geometricPrecision; image-rendering:optimizeQuality; fill-rule:evenodd; clip-rule:evenodd"
viewBox="0 0 253.98 253.98"
 xmlns:xlink="http://www.w3.org/1999/xlink"
 xmlns:xodm="http://www.corel.com/coreldraw/odm/2003">
 <defs>
  <style type="text/css">
   <![CDATA[
    .fil0 {fill:black;fill-rule:nonzero}
   ]]>
  </style>
 </defs>
 <g id="Слой_x0020_1">
  <metadata id="CorelCorpID_0Corel-Layer"/>
  <path class="fil0" d="M161.22 222.93c-3.19,0 -6.42,-0.62 -9.5,-1.9 -9.24,-3.82 -15.21,-12.72 -15.21,-22.67l0 -21.11c0,-5.42 4.39,-9.81 9.81,-9.81 5.42,0 9.82,4.39 9.82,9.81l0 21.11c0,2.94 2.16,4.15 3.08,4.54 0.95,0.39 3.37,1.07 5.49,-1.05l65.08 -65.16c3.84,-3.84 3.84,-10.09 0,-13.92l-65.08 -65.17c-2.12,-2.11 -4.54,-1.44 -5.48,-1.04 -0.93,0.38 -3.09,1.59 -3.09,4.53l0 59.31c0,10.83 -8.81,19.63 -19.63,19.63l-125.6 0c-5.42,0 -9.81,-4.39 -9.81,-9.81 0,-5.42 4.39,-9.82 9.81,-9.82l125.6 0 0 -59.31c0,-9.94 5.97,-18.84 15.21,-22.67 9.27,-3.83 19.82,-1.75 26.87,5.31l65.09 65.17c11.47,11.48 11.47,30.17 0,41.66l-65.09 65.16c-4.7,4.71 -10.97,7.21 -17.37,7.21zm0 0z"/>
 </g>
</svg>
